<svg width="78" height="81" viewBox="0 0 78 81" fill="none" xmlns="http://www.w3.org/2000/svg">
<path d="M77.9929 73.2529L77.2962 60.2214C76.979 55.2203 73.7324 50.911 69.025 49.2432L52.9789 43.558C52.241 43.2965 51.406 43.4863 50.8526 44.0421L50.3383 44.5585L46.8447 42.8004L46.8445 39.707C50.206 37.4441 52.8964 33.5643 53.6296 29.7141C53.6371 29.6745 53.6438 29.6353 53.6509 29.5958C53.6744 29.4648 53.6966 29.3338 53.7157 29.2029C53.7339 29.0798 53.7503 28.9569 53.764 28.8343C53.7697 28.7826 53.7743 28.731 53.7793 28.6794C53.7919 28.5511 53.8022 28.4233 53.8101 28.2959C53.8123 28.2607 53.8147 28.2254 53.8166 28.1901C53.8183 28.1559 53.8214 28.1216 53.8227 28.0876H54.6856C56.377 28.0876 57.7531 26.7081 57.7531 25.0124V21.2477C57.7531 21.0719 57.7383 20.8985 57.7091 20.728C57.7372 20.6283 57.7531 20.5236 57.7531 20.4149C57.7531 19.3839 57.5792 18.3935 57.2638 17.4685V13.3752C57.2636 6.00002 51.2785 0 43.9217 0H34.078C26.7212 0 20.7361 6.00002 20.7361 13.3752V17.4685C20.4204 18.3937 20.2467 19.384 20.2467 20.4149C20.2467 20.5236 20.2628 20.6283 20.2907 20.728C20.2615 20.8985 20.2467 21.0719 20.2467 21.2477V25.0124C20.2467 26.7081 21.6228 28.0876 23.3142 28.0876H24.176C24.1776 28.129 24.181 28.1708 24.1833 28.2124C24.185 28.2479 24.1872 28.2831 24.1894 28.3186C24.1975 28.4505 24.208 28.5828 24.2213 28.7155C24.2256 28.7585 24.229 28.8014 24.2338 28.8446C24.2505 28.9952 24.2701 29.1461 24.2931 29.2975C24.306 29.3834 24.322 29.4695 24.337 29.5557C24.3482 29.6195 24.3592 29.6831 24.3715 29.7468C24.3924 29.8557 24.4148 29.9645 24.4386 30.0734C24.4432 30.0941 24.4482 30.115 24.4528 30.1357C25.2889 33.8532 27.9099 37.5512 31.155 39.7375L31.1547 42.8004L27.662 44.5589L27.1473 44.0421C26.5938 43.4865 25.7588 43.2965 25.0209 43.5582L8.97445 49.2432C4.26713 50.911 1.02066 55.2203 0.702669 60.2328L0.00719936 73.2414C-0.0559248 74.2374 0.298359 75.2261 0.979311 75.9535C1.65916 76.6798 2.6188 77.0963 3.6119 77.0963H19.2114V79.2071C19.2114 80.1957 20.0138 81 20.9999 81H56.9996C57.9857 81 58.7881 80.1957 58.7881 79.2071V77.0963H74.3876C75.3807 77.0963 76.3402 76.6798 77.0202 75.9535C77.7011 75.2261 78.0554 74.2376 77.9929 73.2529ZM55.4529 25.0124C55.4529 25.4366 55.1086 25.7818 54.6855 25.7818H53.83V21.5679H55.4529V25.0124ZM34.078 2.30581H43.9219C50.0103 2.30581 54.9637 7.2715 54.9637 13.3752V13.8464C54.9459 13.8292 54.9269 13.8132 54.9089 13.7961C54.8273 13.7185 54.7445 13.642 54.6601 13.5675C54.6473 13.5563 54.6345 13.5452 54.6217 13.5341C53.2322 12.3199 51.4743 11.5196 49.5396 11.3299C49.5271 11.3286 49.5143 11.3282 49.5019 11.327C49.3685 11.3146 49.2345 11.3038 49.0996 11.297C48.9492 11.2894 48.7982 11.2854 48.6465 11.2854H29.3536C29.2019 11.2854 29.0509 11.2894 28.9005 11.297C28.7656 11.3036 28.6316 11.3144 28.4983 11.327C28.4858 11.3283 28.473 11.3286 28.4605 11.3299C26.5256 11.5196 24.7679 12.3199 23.3784 13.5341C23.3656 13.5452 23.3527 13.5563 23.3401 13.5675C23.2556 13.6422 23.1728 13.7185 23.0912 13.7961C23.0732 13.8132 23.0543 13.8292 23.0365 13.8464V13.3752H23.0361C23.0361 7.2715 27.9895 2.30581 34.078 2.30581ZM24.1695 25.7818H23.314C22.8908 25.7818 22.5466 25.4366 22.5466 25.0124V21.5679H24.1695V25.7818ZM22.6438 19.2621C22.8826 17.8612 23.549 16.6049 24.503 15.6327C24.5295 15.6058 24.5568 15.5796 24.5838 15.5531C24.6183 15.5191 24.6527 15.4851 24.6879 15.4519C24.7334 15.409 24.7796 15.3671 24.8262 15.3256C24.8421 15.3114 24.8579 15.2972 24.874 15.2831C24.9325 15.232 24.9917 15.1815 25.0518 15.1325C25.0533 15.1312 25.0548 15.1301 25.0563 15.1288C25.9768 14.3785 27.0882 13.8699 28.2825 13.6773C28.2952 13.6753 28.3078 13.6732 28.3204 13.6713C28.388 13.6609 28.4558 13.6517 28.524 13.6431C28.5565 13.6392 28.589 13.6356 28.6217 13.6319C28.6769 13.6259 28.7323 13.6202 28.7878 13.6156C28.839 13.6114 28.8904 13.6082 28.9419 13.605C28.9831 13.6025 29.0242 13.5995 29.0656 13.5977C29.1611 13.5938 29.257 13.5913 29.3534 13.5913H48.6459C48.7423 13.5913 48.8383 13.5938 48.9338 13.5977C48.9751 13.5995 49.0163 13.6025 49.0575 13.605C49.1089 13.6082 49.1604 13.6114 49.2115 13.6156C49.267 13.6204 49.3224 13.6259 49.3777 13.6319C49.4103 13.6354 49.4428 13.639 49.4754 13.6431C49.5434 13.6515 49.6114 13.6607 49.6789 13.6713C49.6916 13.6732 49.7042 13.6754 49.7168 13.6773C50.9111 13.8697 52.0226 14.3785 52.9431 15.1288C52.9445 15.1301 52.9461 15.1312 52.9475 15.1325C53.0076 15.1815 53.0668 15.232 53.1253 15.2831C53.1414 15.2972 53.1572 15.3114 53.1732 15.3256C53.2197 15.3671 53.266 15.4092 53.3114 15.4519C53.3466 15.4851 53.3812 15.5191 53.4156 15.5531C53.4425 15.5796 53.4698 15.6058 53.4964 15.6327C54.4502 16.6049 55.1166 17.8612 55.3555 19.2621H22.6438ZM26.5237 28.6214C26.5218 28.6051 26.5201 28.5888 26.5184 28.5725C26.5042 28.4436 26.4933 28.3151 26.4854 28.1871C26.4844 28.1708 26.483 28.1544 26.4821 28.1381C26.4742 27.9958 26.4696 27.8542 26.4696 27.7138V21.5679H51.53V27.6839C51.53 27.8242 51.5256 27.9656 51.5176 28.1077C51.5166 28.1259 51.5151 28.1444 51.5138 28.1626C51.5059 28.2874 51.4953 28.4129 51.4816 28.5388C51.4794 28.5592 51.4772 28.5795 51.4748 28.5999C50.9545 33.0758 46.785 38.1313 42.5413 39.1892L42.3913 39.2265C39.3051 39.996 38.524 39.9941 35.4258 39.2112C31.1957 38.1421 27.0393 33.0854 26.5237 28.6214ZM32.1647 44.872C32.9408 44.5827 33.4545 43.848 33.4546 43.0089L33.4548 40.9779C33.919 41.1679 34.3893 41.3273 34.8635 41.4472C36.6138 41.8896 37.7701 42.1101 38.9287 42.1101C40.0741 42.1101 41.2217 41.8943 42.9464 41.4645L43.0963 41.4272C43.584 41.3056 44.0672 41.1429 44.5443 40.9476L44.5444 43.009C44.5446 43.8481 45.0584 44.583 45.8344 44.8722L48.5459 46.2367C48.5304 46.2492 48.5149 46.2615 48.4995 46.274C48.3475 46.3965 48.1941 46.5166 48.0382 46.6325C48.0344 46.6354 48.0306 46.6381 48.0268 46.6407C47.8726 46.7553 47.7159 46.8659 47.558 46.9741C47.5329 46.9913 47.5079 47.0087 47.4828 47.0258C47.329 47.1299 47.1731 47.2305 47.0157 47.3286C46.9846 47.3481 46.9532 47.3674 46.922 47.3865C46.7637 47.4837 46.6038 47.5781 46.4422 47.6691C46.4175 47.683 46.3925 47.6964 46.3678 47.7102C46.2055 47.8004 46.0419 47.8879 45.8767 47.9719C45.8659 47.9772 45.8553 47.9831 45.8446 47.9885C45.675 48.0741 45.5034 48.1555 45.3308 48.2346C45.2999 48.2487 45.2691 48.2631 45.2381 48.277C45.0709 48.3523 44.902 48.4243 44.7321 48.4933C44.6984 48.5069 44.6647 48.5204 44.6311 48.5336C44.4576 48.6026 44.2832 48.6691 44.1073 48.7314C44.0858 48.739 44.0642 48.746 44.0429 48.7536C43.8706 48.8138 43.6971 48.8711 43.5224 48.925C43.5026 48.9312 43.4828 48.9377 43.4629 48.9439C43.2832 48.9986 43.102 49.0494 42.9201 49.0973C42.8855 49.1065 42.8511 49.1157 42.8164 49.1245C42.6374 49.1704 42.4575 49.2131 42.2765 49.2525C42.2431 49.2598 42.2095 49.2666 42.1758 49.2737C41.9887 49.3131 41.8009 49.35 41.6118 49.3824C41.5984 49.3848 41.5848 49.3865 41.5714 49.3889C41.3865 49.4201 41.2004 49.4474 41.0137 49.472C40.9872 49.4754 40.961 49.4794 40.9345 49.4827C40.7467 49.5063 40.5581 49.5259 40.3688 49.5425C40.3326 49.5457 40.2966 49.5488 40.2605 49.5517C40.0719 49.567 39.8827 49.5792 39.6929 49.5876C39.6619 49.589 39.6308 49.5898 39.5999 49.5909C39.4006 49.5985 39.2006 49.6036 38.9999 49.6036C38.7992 49.6036 38.5994 49.5987 38.3999 49.5909C38.3691 49.5898 38.3384 49.5889 38.3078 49.5876C38.1176 49.5792 37.9284 49.567 37.7396 49.5517C37.704 49.5488 37.6683 49.5457 37.6325 49.5425C37.4425 49.5257 37.2531 49.5061 37.0647 49.4824C37.0402 49.4794 37.0159 49.4757 36.9915 49.4726C36.8015 49.4478 36.6121 49.4199 36.4238 49.3881C36.4132 49.3864 36.4025 49.3848 36.3919 49.383C36.1997 49.3501 36.0088 49.3128 35.8186 49.2726C35.7893 49.2664 35.7597 49.2604 35.7304 49.254C35.5448 49.2136 35.3603 49.1698 35.177 49.1226C35.149 49.1155 35.1212 49.1081 35.0933 49.1007C34.9043 49.0508 34.716 48.9981 34.5293 48.9412C34.5213 48.9388 34.5134 48.9361 34.5053 48.9336C34.3125 48.8743 34.1209 48.8113 33.9307 48.7442C33.9228 48.7415 33.9149 48.7388 33.9071 48.7361C33.7188 48.6695 33.5321 48.5987 33.3468 48.5246C33.3279 48.517 33.309 48.5096 33.29 48.502C33.1059 48.4275 32.9229 48.3495 32.7419 48.2679C32.7295 48.2623 32.7172 48.2565 32.7047 48.2508C32.3247 48.0779 31.9515 47.8894 31.5865 47.6849C31.5855 47.6843 31.5844 47.6838 31.5835 47.6833C31.402 47.5816 31.2225 47.4757 31.0452 47.3663C31.0363 47.3607 31.0275 47.3554 31.0187 47.3498C30.8413 47.2399 30.6658 47.1264 30.4925 47.0089C30.4917 47.0083 30.4908 47.0078 30.49 47.0071C30.1395 46.7691 29.798 46.5153 29.4661 46.2465C29.462 46.2432 29.4581 46.24 29.454 46.2367L32.1647 44.872ZM75.343 74.3751C75.0925 74.6426 74.7533 74.79 74.3878 74.79H64.8887V61.1357C64.8887 60.4989 64.3737 59.9827 63.7386 59.9827C63.1034 59.9827 62.5884 60.4989 62.5884 61.1357V74.79H58.7879V55.6329C58.7879 54.6443 57.9856 53.84 56.9994 53.84H20.9999V53.8401C20.0138 53.8401 19.2114 54.6444 19.2114 55.633V63.3358C19.2114 63.9726 19.7264 64.4888 20.3616 64.4888C20.9968 64.4888 21.5117 63.9726 21.5117 63.3358V56.1459H33.2602V66.1561C33.2602 66.5646 33.4758 66.9425 33.8269 67.1496C34.178 67.3567 34.6123 67.3622 34.9685 67.164L38.9147 64.9674L43.049 67.1737C43.2182 67.264 43.4039 67.3088 43.5895 67.3088C43.7947 67.3088 43.9998 67.2537 44.1816 67.1442C44.5277 66.9357 44.7396 66.5606 44.7396 66.1558V56.1456H56.4881V78.694H21.5115V71.455C21.5115 70.8182 20.9966 70.302 20.3614 70.302C19.7262 70.302 19.2113 70.8182 19.2113 71.455V74.7904H15.4107V61.136C15.4107 60.4992 14.8958 59.983 14.2606 59.983C13.6254 59.983 13.1105 60.4992 13.1105 61.136V74.7904H3.6119C3.24641 74.7904 2.90712 74.6429 2.65668 74.3754C2.40513 74.1066 2.27951 73.7559 2.3035 73.376L2.99897 60.3674C3.25762 56.2897 5.9041 52.7765 9.7411 51.4169L25.6342 45.786L26.6273 46.7831C26.6274 46.7833 26.6276 46.7836 26.6279 46.7838C29.9198 50.0888 34.3136 51.9091 38.9999 51.9091C39.4801 51.9091 39.9572 51.8888 40.4305 51.851C44.575 51.5193 48.4176 49.7501 51.3719 46.7838L51.3778 46.7779C51.3779 46.7778 51.3781 46.7776 51.3782 46.7774V46.7773L52.3657 45.7858L68.2587 51.4167C72.0957 52.7764 74.7422 56.2896 75.0001 60.3557L75.6968 73.3873C75.7201 73.7555 75.5945 74.1064 75.343 74.3751ZM42.4394 56.1459V64.2363L39.4435 62.6375C39.2745 62.5473 39.0888 62.5024 38.903 62.5024C38.7106 62.5024 38.5183 62.5508 38.3448 62.6473L35.5603 64.1972V56.1459H42.4394Z" fill="#3347A1"/>
</svg>
