<svg width="49" height="49" viewBox="0 0 49 49" fill="none" xmlns="http://www.w3.org/2000/svg">
<circle cx="24.5" cy="24.5" r="24.5" fill="#314DCB"/>
<path d="M26.1326 18.4665C26.4218 18.1988 26.8066 18.0508 27.2058 18.0538C27.605 18.0567 27.9875 18.2103 28.2725 18.4822C28.5574 18.7541 28.7226 19.123 28.7332 19.5111C28.7437 19.8991 28.5988 20.276 28.329 20.5621L20.1386 30.5216C19.9977 30.6691 19.8277 30.7874 19.6388 30.8696C19.4498 30.9517 19.2458 30.996 19.0388 30.9997C18.8318 31.0035 18.6262 30.9666 18.4343 30.8913C18.2423 30.816 18.0679 30.7038 17.9216 30.5615L12.49 25.2804C12.3387 25.1434 12.2174 24.9781 12.1333 24.7945C12.0491 24.6109 12.0039 24.4126 12.0002 24.2117C11.9966 24.0107 12.0346 23.811 12.1121 23.6246C12.1895 23.4382 12.3047 23.2689 12.4509 23.1268C12.5971 22.9846 12.7713 22.8726 12.963 22.7973C13.1547 22.722 13.36 22.685 13.5667 22.6886C13.7734 22.6921 13.9773 22.7361 14.1662 22.8179C14.355 22.8997 14.525 23.0177 14.6659 23.1648L18.9644 27.3421L26.0915 18.5104C26.1043 18.495 26.118 18.4803 26.1326 18.4665ZM24.2441 28.7253L26.1326 30.5615C26.2789 30.7035 26.4532 30.8154 26.6449 30.8905C26.8367 30.9656 27.042 31.0024 27.2488 30.9987C27.4555 30.995 27.6593 30.9508 27.8481 30.8688C28.0368 30.7869 28.2067 30.6688 28.3475 30.5216L36.5421 20.5621C36.6893 20.4208 36.8057 20.2521 36.8843 20.0661C36.963 19.8801 37.0023 19.6806 36.9999 19.4795C36.9975 19.2783 36.9534 19.0798 36.8703 18.8956C36.7872 18.7114 36.6668 18.5454 36.5162 18.4074C36.3657 18.2695 36.1881 18.1625 35.9941 18.0928C35.8 18.0231 35.5935 17.9921 35.3869 18.0017C35.1803 18.0113 34.9778 18.0613 34.7915 18.1487C34.6051 18.2361 34.4389 18.3591 34.3025 18.5104L27.1733 27.3421L26.1777 26.3721L24.242 28.7253H24.2441Z" fill="white"/>
</svg>
