<svg width="40" height="60" viewBox="0 0 40 60" fill="none" xmlns="http://www.w3.org/2000/svg">
<path d="M19.5918 60C16.2177 60 13.3061 59.5499 10.8571 58.6498C8.46259 57.7496 6.47619 56.5401 4.89796 55.0211C3.31973 53.5021 2.12245 51.7862 1.30612 49.8734C0.544218 47.9044 0.108844 45.9072 0 43.8819H9.79592C10.068 45.9072 11.0204 47.6231 12.6531 49.0295C14.3401 50.3797 16.6531 51.0549 19.5918 51.0549C22.9116 51.0549 25.4966 50.0422 27.3469 48.0169C29.2517 45.9916 30.2041 43.038 30.2041 39.1561C30.2041 36.962 29.8776 35.1336 29.2245 33.6709C28.6258 32.1519 27.8367 30.9423 26.8571 30.0422C25.8776 29.0858 24.7347 28.4107 23.4286 28.0169C22.1769 27.5668 20.898 27.3418 19.5918 27.3418C17.2517 27.3418 15.2925 27.7637 13.7143 28.6076C12.1905 29.4515 10.966 30.6048 10.0408 32.0675H1.22449V0H36.7347V8.77637H10.8571V22.5316C12.1088 21.294 13.5782 20.3094 15.2653 19.5781C16.9524 18.7904 19.0748 18.3966 21.6327 18.3966C24.4082 18.3966 26.9116 18.8467 29.1429 19.7468C31.4286 20.647 33.3605 21.9691 34.9388 23.7131C36.5714 25.4571 37.8231 27.6231 38.6939 30.211C39.5646 32.7426 40 35.6962 40 39.0717C40 42.2785 39.5102 45.1758 38.5306 47.7637C37.551 50.3516 36.1633 52.5457 34.3673 54.346C32.5714 56.1463 30.4218 57.5527 27.9184 58.5654C25.415 59.5218 22.6395 60 19.5918 60Z" fill="#314DCB"/>
</svg>
