<svg width="68" height="66" viewBox="0 0 68 66" fill="none" xmlns="http://www.w3.org/2000/svg">
<path d="M39.525 1.06349C35.9783 -0.354498 32.0217 -0.354498 28.475 1.06349L4.00775 10.8538C2.82586 11.3262 1.81254 12.1414 1.09826 13.1944C0.383993 14.2473 0.00148501 15.4899 8.89764e-08 16.762V49.238C-0.000212772 50.5115 0.381503 51.756 1.09588 52.8106C1.81026 53.8653 2.82452 54.6817 4.00775 55.1547L28.475 64.9365C32.0217 66.3545 35.9783 66.3545 39.525 64.9365L63.9922 55.1547C65.1755 54.6817 66.1897 53.8653 66.9041 52.8106C67.6185 51.756 68.0002 50.5115 68 49.238V16.762C67.9994 15.4892 67.6173 14.2457 66.9029 13.1919C66.1886 12.1381 65.1748 11.3223 63.9922 10.8496L39.525 1.06349ZM30.056 5.01361C32.5892 4.00092 35.4151 4.00092 37.9482 5.01361L60.1545 13.8908L50.4688 17.7559L24.3143 7.30723L30.0518 5.01361H30.056ZM18.5938 9.58811L44.7483 20.0411L34 24.3437L7.8455 13.8865L18.5938 9.59235V9.58811ZM36.125 28.0645L63.75 17.0211V49.2337C63.7508 49.6586 63.624 50.0739 63.3861 50.426C63.1482 50.778 62.8101 51.0507 62.4155 51.2088L37.944 60.9906C37.349 61.2243 36.7412 61.4069 36.125 61.5343V28.0645ZM31.875 28.0645V61.5343C31.2537 61.4075 30.6449 61.2256 30.056 60.9906L5.5845 51.2088C5.19058 51.051 4.85295 50.779 4.6151 50.4277C4.37726 50.0765 4.2501 49.6621 4.25 49.238V17.0254L31.875 28.0687V28.0645Z" fill="#314DCB"/>
</svg>
