<svg width="49" height="49" viewBox="0 0 49 49" fill="none" xmlns="http://www.w3.org/2000/svg">
<circle cx="24.5" cy="24.5" r="24.5" fill="#E8ECFF"/>
<path d="M24.5 12C24.8315 12 25.1495 12.1317 25.3839 12.3661C25.6183 12.6005 25.75 12.9185 25.75 13.25V17C25.75 17.3315 25.6183 17.6495 25.3839 17.8839C25.1495 18.1183 24.8315 18.25 24.5 18.25C24.1685 18.25 23.8505 18.1183 23.6161 17.8839C23.3817 17.6495 23.25 17.3315 23.25 17V13.25C23.25 12.9185 23.3817 12.6005 23.6161 12.3661C23.8505 12.1317 24.1685 12 24.5 12ZM24.5 30.75C24.8315 30.75 25.1495 30.8817 25.3839 31.1161C25.6183 31.3505 25.75 31.6685 25.75 32V35.75C25.75 36.0815 25.6183 36.3995 25.3839 36.6339C25.1495 36.8683 24.8315 37 24.5 37C24.1685 37 23.8505 36.8683 23.6161 36.6339C23.3817 36.3995 23.25 36.0815 23.25 35.75V32C23.25 31.6685 23.3817 31.3505 23.6161 31.1161C23.8505 30.8817 24.1685 30.75 24.5 30.75ZM37 24.5C37 24.8315 36.8683 25.1495 36.6339 25.3839C36.3995 25.6183 36.0815 25.75 35.75 25.75H32C31.6685 25.75 31.3505 25.6183 31.1161 25.3839C30.8817 25.1495 30.75 24.8315 30.75 24.5C30.75 24.1685 30.8817 23.8505 31.1161 23.6161C31.3505 23.3817 31.6685 23.25 32 23.25H35.75C36.0815 23.25 36.3995 23.3817 36.6339 23.6161C36.8683 23.8505 37 24.1685 37 24.5ZM18.25 24.5C18.25 24.8315 18.1183 25.1495 17.8839 25.3839C17.6495 25.6183 17.3315 25.75 17 25.75H13.25C12.9185 25.75 12.6005 25.6183 12.3661 25.3839C12.1317 25.1495 12 24.8315 12 24.5C12 24.1685 12.1317 23.8505 12.3661 23.6161C12.6005 23.3817 12.9185 23.25 13.25 23.25H17C17.3315 23.25 17.6495 23.3817 17.8839 23.6161C18.1183 23.8505 18.25 24.1685 18.25 24.5ZM33.3387 33.3387C33.1043 33.5731 32.7865 33.7047 32.455 33.7047C32.1235 33.7047 31.8057 33.5731 31.5712 33.3387L28.92 30.6875C28.6923 30.4517 28.5663 30.136 28.5692 29.8082C28.572 29.4805 28.7035 29.167 28.9352 28.9352C29.167 28.7035 29.4805 28.572 29.8082 28.5692C30.136 28.5663 30.4517 28.6923 30.6875 28.92L33.3387 31.57C33.455 31.6861 33.5472 31.824 33.6101 31.9757C33.673 32.1274 33.7054 32.2901 33.7054 32.4544C33.7054 32.6186 33.673 32.7813 33.6101 32.9331C33.5472 33.0848 33.455 33.2227 33.3387 33.3387ZM20.08 20.08C19.8456 20.3143 19.5277 20.446 19.1962 20.446C18.8648 20.446 18.5469 20.3143 18.3125 20.08L15.6625 17.43C15.4279 17.1956 15.2961 16.8777 15.296 16.5461C15.2959 16.2145 15.4275 15.8964 15.6619 15.6619C15.8963 15.4273 16.2142 15.2955 16.5458 15.2954C16.8774 15.2953 17.1954 15.4269 17.43 15.6612L20.08 18.3125C20.3143 18.5469 20.446 18.8648 20.446 19.1962C20.446 19.5277 20.3143 19.8456 20.08 20.08ZM15.6625 33.3387C15.4282 33.1043 15.2965 32.7865 15.2965 32.455C15.2965 32.1235 15.4282 31.8057 15.6625 31.5712L18.3138 28.92C18.4291 28.8006 18.567 28.7054 18.7195 28.6399C18.872 28.5744 19.036 28.5399 19.202 28.5384C19.368 28.537 19.5326 28.5686 19.6862 28.6315C19.8398 28.6943 19.9794 28.7871 20.0967 28.9045C20.2141 29.0219 20.3069 29.1614 20.3698 29.3151C20.4326 29.4687 20.4643 29.6333 20.4628 29.7993C20.4614 29.9652 20.4269 30.1292 20.3614 30.2818C20.2959 30.4343 20.2006 30.5722 20.0813 30.6875L17.4312 33.3387C17.3152 33.455 17.1773 33.5472 17.0256 33.6101C16.8738 33.673 16.7111 33.7054 16.5469 33.7054C16.3826 33.7054 16.2199 33.673 16.0682 33.6101C15.9165 33.5472 15.7786 33.455 15.6625 33.3387ZM28.92 20.08C28.6857 19.8456 28.554 19.5277 28.554 19.1962C28.554 18.8648 28.6857 18.5469 28.92 18.3125L31.57 15.6612C31.8044 15.4267 32.1223 15.2949 32.4539 15.2947C32.7855 15.2946 33.1036 15.4262 33.3381 15.6606C33.5727 15.895 33.7045 16.213 33.7046 16.5446C33.7047 16.8761 33.5731 17.1942 33.3387 17.4288L30.6875 20.08C30.4531 20.3143 30.1352 20.446 29.8037 20.446C29.4723 20.446 29.1544 20.3143 28.92 20.08Z" fill="white"/>
</svg>
