<svg width="60" height="68" viewBox="0 0 60 68" fill="none" xmlns="http://www.w3.org/2000/svg">
<path d="M30.0005 51.5179C26.3295 51.5137 22.8102 50.0796 20.2145 47.53C17.6187 44.9804 16.1586 41.5237 16.1543 37.9181V23.2824L30.0005 16.4824L43.8466 23.2824V37.9158C43.8423 41.5214 42.3822 44.9782 39.7864 47.5277C37.1907 50.0773 33.6714 51.5115 30.0005 51.5157V51.5179ZM20.7697 26.0817V37.9181C20.7697 40.3227 21.7422 42.6288 23.4733 44.3291C25.2044 46.0294 27.5523 46.9846 30.0005 46.9846C32.4486 46.9846 34.7965 46.0294 36.5276 44.3291C38.2587 42.6288 39.2312 40.3227 39.2312 37.9181V26.0817L30.0005 21.5484L20.7697 26.0817Z" fill="#314DCB"/>
<path d="M30 68C29.5913 68.0003 29.1899 67.8939 28.8369 67.6917L1.14462 51.8252C0.796205 51.6255 0.507174 51.3396 0.306339 50.996C0.105504 50.6524 -0.000119432 50.2631 1.01344e-07 49.8668V18.1338C-0.000119432 17.7376 0.105504 17.3483 0.306339 17.0047C0.507174 16.661 0.796205 16.3751 1.14462 16.1754L28.8369 0.308935C29.1899 0.106612 29.5913 0 30 0C30.4087 0 30.8101 0.106612 31.1631 0.308935L58.8554 16.1754L56.5292 20.0922L30 4.89209L4.61538 19.4349V48.5658L30 63.1108L55.3846 48.5658V31.7337H60V49.8668C60.0001 50.2631 59.8945 50.6524 59.6937 50.996C59.4928 51.3396 59.2038 51.6255 58.8554 51.8252L31.1631 67.6917C30.8101 67.8939 30.4087 68.0003 30 68Z" fill="#314DCB"/>
</svg>
