<svg width="60" height="48" viewBox="0 0 60 48" fill="none" xmlns="http://www.w3.org/2000/svg">
<path d="M55.1337 13.6284L51.4376 19.1916C53.2201 22.7493 54.0927 26.6939 53.9773 30.672C53.862 34.6501 52.7622 38.5375 50.7766 41.9857H9.12871C6.54801 37.5054 5.47865 32.3121 6.07916 27.1758C6.67968 22.0394 8.9181 17.2335 12.4626 13.4703C16.0071 9.70722 20.6689 7.18728 25.757 6.2841C30.8451 5.38092 36.0886 6.14258 40.7102 8.45616L46.2692 4.75739C40.6095 1.12542 33.896 -0.50207 27.2028 0.135236C20.5096 0.772541 14.2233 3.63783 9.34955 8.27276C4.47575 12.9077 1.29603 19.0445 0.319009 25.7015C-0.658016 32.3585 0.624106 39.1511 3.96029 44.9928C4.48468 45.9018 5.23764 46.6576 6.14434 47.1852C7.05105 47.7127 8.07992 47.9936 9.12871 48H50.7465C51.8055 48.0042 52.8468 47.7283 53.765 47.2002C54.6831 46.6721 55.4456 45.9106 55.975 44.9928C58.7437 40.1932 60.1331 34.7213 59.99 29.1812C59.8468 23.6411 58.1766 18.2483 55.1637 13.5984L55.1337 13.6284Z" fill="#314DCB"/>
<path d="M25.7449 34.2551C26.2974 34.8083 26.9536 35.2471 27.6758 35.5465C28.398 35.8459 29.1722 36 29.9541 36C30.7359 36 31.5101 35.8459 32.2323 35.5465C32.9546 35.2471 33.6107 34.8083 34.1632 34.2551L51 9L25.7449 25.8368C25.1917 26.3893 24.7529 27.0454 24.4535 27.7677C24.1541 28.4899 24 29.2641 24 30.0459C24 30.8278 24.1541 31.602 24.4535 32.3242C24.7529 33.0464 25.1917 33.7026 25.7449 34.2551Z" fill="#314DCB"/>
</svg>
